<svg width="201" height="201" viewBox="0 0 201 201" fill="none" xmlns="http://www.w3.org/2000/svg">
<path d="M201 113.586C201 146.46 156.228 173.11 101 173.11C45.7715 173.11 1 146.46 1 113.586C1 80.7118 45.7715 67.8716 101 67.8716C156.228 67.8716 201 80.7118 201 113.586Z" fill="#5A5A5B"/>
<g clip-path="url(#clip0_530_2661)">
<path d="M81.9996 52.3243V62.991L83.2377 64.3243C85.1424 66.3719 85.6424 67.5624 85.6186 70.0148C85.6186 72.4433 85.1186 73.6814 83.3329 75.61C80.9758 78.1814 77.1662 80.0148 72.1901 80.991C70.1662 81.3957 63.7615 81.3957 61.4758 80.991C58.8805 80.5386 56.1424 79.6338 53.9758 78.5148C51.6424 77.3005 49.1662 74.9433 48.4758 73.2767C48.2377 72.6576 47.952 72.1576 47.8805 72.1576C47.7853 72.1576 47.7139 87.3957 47.7139 106.015C47.7139 135.015 47.7615 140.015 48.0472 140.848C48.2377 141.372 48.4282 141.896 48.452 142.015C48.4758 142.134 48.6662 142.467 48.8567 142.705C50.7139 145.181 53.2853 147.039 56.2853 148.134C58.5948 148.967 58.952 149.086 59.0234 149.11C61.2853 149.586 62.9758 149.824 64.6424 149.92L66.7139 150.039V148.158V146.253L68.3329 146.11C73.1424 145.658 76.5472 144.8 79.4282 143.277C81.6901 142.062 83.9996 139.896 84.8567 138.181C85.1901 137.491 85.5234 137.015 85.6186 137.086C85.9043 137.372 85.7615 139.443 85.3805 140.729C85.1662 141.443 84.7377 142.396 84.4282 142.848L83.8567 143.681L84.6424 144.491C85.8805 145.8 88.4758 147.372 90.571 148.134C93.1186 149.039 93.2377 149.086 93.3805 149.11C96.0948 149.658 97.1901 149.824 98.9282 149.92L101 150.039V148.158V146.253L102.619 146.11C105.476 145.848 107.738 145.443 109.809 144.848C111.857 144.277 115 142.753 115.904 141.896C116.595 141.253 116.761 141.324 117.381 142.42C118.738 144.8 121.547 146.943 124.857 148.134C127.166 148.967 127.523 149.086 127.595 149.11C129.857 149.586 131.547 149.824 133.214 149.92L135.285 150.039V148.158V146.253L136.904 146.11C143.738 145.491 148.261 143.848 151.357 140.848C153.428 138.848 154.381 136.8 154.285 134.61L154.214 132.991L153.642 134.134C151.404 138.658 145.333 141.705 137.428 142.3L135.285 142.467V140.539V138.634L136.904 138.491C143.738 137.872 148.261 136.229 151.357 133.229C153.428 131.229 154.381 129.181 154.285 126.991L154.214 125.372L153.642 126.515C151.404 131.039 145.333 134.086 137.428 134.681L135.285 134.848V132.92V131.015L136.904 130.872C143.738 130.253 148.261 128.61 151.357 125.61C153.428 123.61 154.381 121.562 154.285 119.372L154.214 117.753L153.642 118.896C151.404 123.42 145.333 126.467 137.428 127.062L135.285 127.229V125.3V123.396L136.904 123.253C143.738 122.634 148.261 120.991 151.357 117.991C153.428 115.991 154.381 113.943 154.285 111.753L154.214 110.134L153.642 111.277C151.404 115.8 145.333 118.848 137.428 119.443L135.285 119.61V117.681V115.777L136.904 115.634C143.738 115.015 148.261 113.372 151.357 110.372C153.428 108.372 154.381 106.324 154.285 104.134L154.214 102.515L153.642 103.658C151.404 108.181 145.333 111.229 137.428 111.824L135.285 111.991V110.062V108.158L136.904 108.015C143.738 107.396 148.261 105.753 151.357 102.753C153.428 100.753 154.381 98.7052 154.285 96.5148L154.214 94.8957L153.642 96.0386C151.404 100.562 145.333 103.61 137.428 104.205L135.285 104.372V102.443V100.539L136.904 100.396C143.738 99.7767 148.261 98.1338 151.357 95.1338C153.428 93.1338 154.381 91.0862 154.285 88.8957L154.214 87.2767L153.642 88.4195C152.5 90.729 149.738 93.1338 146.714 94.4671C145.309 95.0862 142.69 95.8481 140.761 96.229C138.738 96.6338 132.333 96.6338 130.047 96.229C122.285 94.8719 116.738 90.7052 116.285 85.9195C116.238 85.3005 116.142 84.7767 116.095 84.7767C116.047 84.7767 115.452 85.1338 114.761 85.5862C111.738 87.491 107.928 88.61 103.142 88.9671L101 89.1338V87.2052V85.3005L102.619 85.1576C109.452 84.5386 113.976 82.8957 117.071 79.8957C119.142 77.8957 120.095 75.8481 120 73.6576L119.928 72.0386L119.357 73.1814C117.119 77.7052 111.047 80.7529 103.142 81.3481L101 81.5148V79.5862V77.6814L102.619 77.5386C109.452 76.9195 113.976 75.2767 117.071 72.2767C119.142 70.2767 120.095 68.229 120 66.0386L119.928 64.4195L119.357 65.5624C117.119 70.0862 111.047 73.1338 103.142 73.729L101 73.8957V71.9671V70.0624L102.619 69.9195C109.452 69.3005 113.976 67.6576 117.071 64.6576C119.142 62.6576 120.095 60.61 120 58.4195L119.928 56.8005L119.357 57.9433C117.119 62.4671 111.047 65.5148 103.142 66.11L101 66.2767V64.3481V62.4433L102.619 62.3005C109.452 61.6814 113.976 60.0386 117.071 57.0386C119.142 55.0386 120.095 52.991 120 50.8005L119.928 49.1814L119.357 50.3243C117.119 54.8481 111.047 57.8957 103.142 58.491L101 58.6576V56.729V54.8243L102.619 54.6814C109.452 54.0624 113.976 52.4195 117.071 49.4195C119.142 47.4195 120.095 45.3719 120 43.1814L119.928 41.5624L119.357 42.7052C117.833 45.7767 114.309 48.3243 109.69 49.729C106.761 50.5862 105.023 50.8243 101.238 50.8243C95.8091 50.8243 92.1424 50.0386 88.2615 48.0386C85.9282 46.8243 83.452 44.4671 82.7615 42.8005C82.5234 42.1814 82.2377 41.6814 82.1424 41.6814C82.071 41.6814 81.9996 46.4671 81.9996 52.3243ZM85.6901 77.991C85.5472 80.0862 84.8805 81.5386 83.3329 83.229C80.3805 86.4671 75.3091 88.491 68.8567 88.9671L66.7139 89.1338V87.2052V85.3005L68.3329 85.1576C73.1424 84.7052 76.5472 83.8481 79.4282 82.3243C81.7139 81.11 84.0234 78.9433 84.8329 77.2529C85.1424 76.5862 85.4996 76.0862 85.6186 76.1576C85.7377 76.229 85.7615 77.0386 85.6901 77.991ZM85.6901 85.61C85.5472 87.7052 84.8805 89.1576 83.3329 90.8481C80.3805 94.0862 75.3091 96.11 68.8567 96.5862L66.7139 96.7529V94.8243V92.9195L68.3329 92.7767C73.1424 92.3243 76.5472 91.4671 79.4282 89.9433C81.7139 88.729 84.0234 86.5624 84.8329 84.8719C85.1424 84.2052 85.4996 83.7052 85.6186 83.7767C85.7377 83.8481 85.7615 84.6576 85.6901 85.61ZM116.357 91.8005C116.261 92.3005 113.809 93.8957 112.071 94.61C109.523 95.6814 106.571 96.3243 103.142 96.5862L101 96.7529V94.8243V92.9195L102.619 92.7767C107.404 92.3481 110.857 91.4671 113.619 89.991C114.595 89.4671 115.571 88.8719 115.761 88.6814C116.071 88.3719 116.142 88.491 116.309 89.8243C116.404 90.6576 116.428 91.5386 116.357 91.8005ZM85.6901 93.229C85.5472 95.3243 84.8805 96.7767 83.3329 98.4671C80.3805 101.705 75.3091 103.729 68.8567 104.205L66.7139 104.372V102.443V100.539L68.3329 100.396C73.1424 99.9433 76.5472 99.0862 79.4282 97.5624C81.7139 96.3481 84.0234 94.1814 84.8329 92.491C85.1424 91.8243 85.4996 91.3243 85.6186 91.3957C85.7377 91.4671 85.7615 92.2767 85.6901 93.229ZM116.357 99.4195C116.261 99.9195 113.809 101.515 112.071 102.229C109.523 103.3 106.571 103.943 103.142 104.205L101 104.372V102.443V100.539L102.619 100.396C107.404 99.9671 110.857 99.0862 113.619 97.61C114.595 97.0862 115.571 96.491 115.761 96.3005C116.071 95.991 116.142 96.11 116.309 97.4433C116.404 98.2767 116.428 99.1576 116.357 99.4195ZM85.6901 100.848C85.5472 102.943 84.8805 104.396 83.3329 106.086C80.3805 109.324 75.3091 111.348 68.8567 111.824L66.7139 111.991V110.062V108.158L68.3329 108.015C73.1424 107.562 76.5472 106.705 79.4282 105.181C81.7139 103.967 84.0234 101.8 84.8329 100.11C85.1424 99.4433 85.4996 98.9433 85.6186 99.0148C85.7377 99.0862 85.7615 99.8957 85.6901 100.848ZM116.357 107.039C116.261 107.539 113.809 109.134 112.071 109.848C109.523 110.92 106.571 111.562 103.142 111.824L101 111.991V110.062V108.158L102.619 108.015C107.404 107.586 110.857 106.705 113.619 105.229C114.595 104.705 115.571 104.11 115.761 103.92C116.071 103.61 116.142 103.729 116.309 105.062C116.404 105.896 116.428 106.777 116.357 107.039ZM85.6901 108.467C85.5472 110.562 84.8805 112.015 83.3329 113.705C80.3805 116.943 75.3091 118.967 68.8567 119.443L66.7139 119.61V117.681V115.777L68.3329 115.634C73.1424 115.181 76.5472 114.324 79.4282 112.8C81.7139 111.586 84.0234 109.42 84.8329 107.729C85.1424 107.062 85.4996 106.562 85.6186 106.634C85.7377 106.705 85.7615 107.515 85.6901 108.467ZM116.357 114.658C116.261 115.158 113.809 116.753 112.071 117.467C109.523 118.539 106.571 119.181 103.142 119.443L101 119.61V117.681V115.777L102.619 115.634C107.404 115.205 110.857 114.324 113.619 112.848C114.595 112.324 115.571 111.729 115.761 111.539C116.071 111.229 116.142 111.348 116.309 112.681C116.404 113.515 116.428 114.396 116.357 114.658ZM85.6901 116.086C85.5472 118.181 84.8805 119.634 83.3329 121.324C80.3805 124.562 75.3091 126.586 68.8567 127.062L66.7139 127.229V125.3V123.396L68.3329 123.253C73.1424 122.8 76.5472 121.943 79.4282 120.42C81.7139 119.205 84.0234 117.039 84.8329 115.348C85.1424 114.681 85.4996 114.181 85.6186 114.253C85.7377 114.324 85.7615 115.134 85.6901 116.086ZM116.357 122.277C116.261 122.777 113.809 124.372 112.071 125.086C109.523 126.158 106.571 126.8 103.142 127.062L101 127.229V125.3V123.396L102.619 123.253C107.404 122.824 110.857 121.943 113.619 120.467C114.595 119.943 115.571 119.348 115.761 119.158C116.071 118.848 116.142 118.967 116.309 120.3C116.404 121.134 116.428 122.015 116.357 122.277ZM85.6901 123.705C85.5472 125.8 84.8805 127.253 83.3329 128.943C80.3805 132.181 75.3091 134.205 68.8567 134.681L66.7139 134.848V132.92V131.015L68.3329 130.872C73.1424 130.42 76.5472 129.562 79.4282 128.039C81.7139 126.824 84.0234 124.658 84.8329 122.967C85.1424 122.3 85.4996 121.8 85.6186 121.872C85.7377 121.943 85.7615 122.753 85.6901 123.705ZM116.333 129.777C116.261 130.229 115.785 130.658 114.619 131.348C111.309 133.348 107.952 134.324 103.142 134.681L101 134.848V132.92V131.015L102.619 130.872C107.404 130.443 110.857 129.562 113.619 128.086C114.595 127.562 115.571 126.967 115.761 126.777C116.071 126.467 116.142 126.586 116.285 127.8C116.381 128.562 116.404 129.443 116.333 129.777ZM85.6901 131.324C85.5472 133.42 84.8805 134.872 83.3329 136.562C80.3805 139.8 75.3091 141.824 68.8567 142.3L66.7139 142.467V140.539V138.634L68.3329 138.491C73.1424 138.039 76.5472 137.181 79.4282 135.658C81.7139 134.443 84.0234 132.277 84.8329 130.586C85.1424 129.92 85.4996 129.42 85.6186 129.491C85.7377 129.562 85.7615 130.372 85.6901 131.324ZM116.357 137.515C116.261 138.015 113.809 139.61 112.071 140.324C109.523 141.396 106.571 142.039 103.142 142.3L101 142.467V140.539V138.634L102.619 138.491C107.404 138.062 110.857 137.181 113.619 135.705C114.595 135.181 115.571 134.586 115.761 134.396C116.071 134.086 116.142 134.205 116.309 135.539C116.404 136.372 116.428 137.253 116.357 137.515Z" fill="#575757"/>
<path d="M95.596 28.4672C87.215 30.0148 81.9531 34.2291 81.9531 39.4434C81.9531 40.8243 82.0722 41.3719 82.6912 42.6338C84.5484 46.4672 89.4293 49.3957 95.7626 50.5148C98.0484 50.9195 104.453 50.9195 106.477 50.5148C113.001 49.2529 117.572 46.4195 119.406 42.5386C119.929 41.4672 120.048 40.8481 120.048 39.4672C120.048 34.1576 114.763 29.9672 106.215 28.4672C103.763 28.0386 97.9769 28.0386 95.596 28.4672ZM106.834 32.5624C111.667 33.9195 114.334 36.3957 114.334 39.5386C114.334 42.7291 111.548 45.2529 106.596 46.5862C104.215 47.2291 97.7865 47.2291 95.4055 46.5862C90.4531 45.2529 87.6674 42.7291 87.6674 39.5386C87.6674 36.3481 90.6674 33.6338 95.4055 32.5386C96.3341 32.3481 97.2865 32.11 97.5484 32.0624C97.8103 31.991 99.6436 31.991 101.596 32.0148C104.215 32.0862 105.62 32.2291 106.834 32.5624Z" fill="#ECECEC"/>
<path d="M98.7389 35.9668C95.5008 36.324 92.6437 37.5145 91.858 38.824C91.477 39.5145 91.477 39.5621 91.858 40.2526C92.4056 41.1573 94.5246 42.2764 96.6199 42.7764C98.7866 43.2764 103.215 43.2764 105.382 42.7764C107.477 42.2764 109.596 41.1573 110.144 40.2526C110.525 39.5621 110.525 39.5145 110.144 38.824C108.953 36.824 103.477 35.4668 98.7389 35.9668Z" fill="#FB923C"/>
<path d="M119.238 46.5625C118.31 48.4672 116.095 50.5863 113.714 51.8482C110.833 53.372 107.429 54.2291 102.619 54.6815L101 54.8244V56.7291V58.6577L103.143 58.491C111.214 57.872 117.214 54.8006 119.429 50.1339C119.976 48.9672 120.048 48.5149 120 46.9434L119.929 45.1339L119.238 46.5625Z" fill="#ECECEC"/>
<path d="M119.238 54.1811C118.31 56.0859 116.095 58.2049 113.714 59.4668C110.833 60.9907 107.429 61.8478 102.619 62.3002L101 62.443V64.3478V66.2764L103.143 66.1097C111.214 65.4907 117.214 62.4192 119.429 57.7526C119.976 56.5859 120.048 56.1335 120 54.5621L119.929 52.7526L119.238 54.1811Z" fill="#ECECEC"/>
<path d="M61.3098 58.9432C52.9289 60.4909 47.667 64.7051 47.667 69.9194C47.667 71.3004 47.786 71.848 48.4051 73.1099C50.2622 76.9432 55.1432 79.8718 61.4765 80.9909C63.7622 81.3956 70.167 81.3956 72.1908 80.9909C77.167 80.0147 80.9765 78.1813 83.3337 75.6099C85.1194 73.6813 85.6194 72.4432 85.6194 70.0147C85.6432 67.3718 85.0956 66.229 82.6908 63.8242C80.0956 61.2528 76.9527 59.8242 71.8813 58.9194C69.4765 58.5147 63.6908 58.5147 61.3098 58.9432ZM72.5479 63.0385C77.3813 64.3956 80.0479 66.8718 80.0479 70.0147C80.0479 73.2051 77.2622 75.729 72.3099 77.0623C69.9289 77.7051 63.5003 77.7051 61.1194 77.0623C56.167 75.729 53.3813 73.2051 53.3813 70.0147C53.3813 66.8242 56.3813 64.1099 61.1194 63.0147C62.0479 62.8242 63.0003 62.5861 63.2622 62.5385C63.5241 62.4671 65.3575 62.4671 67.3098 62.4909C69.9289 62.5623 71.3337 62.7051 72.5479 63.0385Z" fill="#ECECEC"/>
<path d="M64.4528 66.4434C61.2147 66.8005 58.3576 67.991 57.5718 69.3005C57.1909 69.991 57.1909 70.0386 57.5718 70.7291C58.1195 71.6339 60.2385 72.7529 62.3338 73.2529C64.5004 73.7529 68.929 73.7529 71.0957 73.2529C73.1909 72.7529 75.3099 71.6339 75.8576 70.7291C76.2385 70.0386 76.2385 69.991 75.8576 69.3005C74.6671 67.3005 69.1909 65.9434 64.4528 66.4434Z" fill="#FB923C"/>
<path d="M119.238 61.8003C118.31 63.705 116.095 65.8241 113.714 67.086C110.833 68.6098 107.429 69.4669 102.619 69.9193L101 70.0622V71.9669V73.8955L103.143 73.7288C111.214 73.1098 117.214 70.0384 119.429 65.3717C119.976 64.205 120.048 63.7527 120 62.1812L119.929 60.3717L119.238 61.8003Z" fill="#ECECEC"/>
<path d="M119.238 69.4194C118.31 71.3242 116.095 73.4432 113.714 74.7051C110.833 76.2289 107.429 77.0861 102.619 77.5385L101 77.6813V79.5861V81.5146L103.143 81.348C111.214 80.7289 117.214 77.6575 119.429 72.9908C119.976 71.8242 120.048 71.3718 120 69.8004L119.929 67.9908L119.238 69.4194Z" fill="#ECECEC"/>
<path d="M129.905 74.1815C126.452 74.8244 123.667 75.8244 121.31 77.3006L120.071 78.0863L120 76.8482L119.929 75.6101L119.238 77.0387C118.31 78.9434 116.095 81.0625 113.714 82.3244C110.833 83.8482 107.429 84.7053 102.619 85.1577L101 85.3006V87.2053V89.1339L103.143 88.9672C107.929 88.6101 111.738 87.491 114.762 85.5863C115.452 85.1339 116.048 84.7768 116.095 84.7768C116.143 84.7768 116.238 85.3006 116.286 85.9196C116.738 90.7053 122.286 94.872 130.048 96.2291C132.333 96.6339 138.738 96.6339 140.762 96.2291C147.286 94.9672 151.857 92.1339 153.69 88.253C154.214 87.1815 154.333 86.5625 154.333 85.1815C154.333 79.872 149.048 75.6815 140.5 74.1815C138.048 73.753 132.262 73.753 129.905 74.1815ZM141.119 78.2768C145.952 79.6339 148.619 82.1101 148.619 85.253C148.619 88.4434 145.833 90.9672 140.881 92.3006C138.5 92.9434 132.071 92.9434 129.69 92.3006C124.738 90.9672 121.952 88.4434 121.952 85.253C121.952 82.0625 124.952 79.3482 129.69 78.253C130.619 78.0625 131.571 77.8244 131.833 77.7768C132.095 77.7053 133.929 77.7053 135.881 77.7291C138.5 77.8006 139.905 77.9434 141.119 78.2768Z" fill="#ECECEC"/>
<path d="M133.024 81.6812C129.786 82.0383 126.929 83.2288 126.143 84.5383C125.762 85.2288 125.762 85.2764 126.143 85.9669C126.691 86.8717 128.81 87.9907 130.905 88.4907C133.072 88.9907 137.5 88.9907 139.667 88.4907C141.762 87.9907 143.881 86.8717 144.429 85.9669C144.81 85.2764 144.81 85.2288 144.429 84.5383C143.238 82.5383 137.762 81.1812 133.024 81.6812Z" fill="#FB923C"/>
<path d="M84.8339 77.2528C84.0244 78.9433 81.7148 81.11 79.4291 82.3243C76.5482 83.8481 73.1434 84.7052 68.3339 85.1576L66.7148 85.3005V87.2052V89.1338L68.8577 88.9671C76.7625 88.3719 82.9529 85.2528 85.0244 80.8243C85.5958 79.6338 86.0006 76.3719 85.6196 76.1576C85.5006 76.0862 85.1434 76.5862 84.8339 77.2528Z" fill="#ECECEC"/>
<path d="M84.8339 84.872C84.0244 86.5625 81.7148 88.7291 79.4291 89.9434C76.5482 91.4672 73.1434 92.3244 68.3339 92.7767L66.7148 92.9196V94.8244V96.7529L68.8577 96.5863C76.7625 95.991 82.9529 92.872 85.0244 88.4434C85.5958 87.2529 86.0006 83.991 85.6196 83.7767C85.5006 83.7053 85.1434 84.2053 84.8339 84.872Z" fill="#ECECEC"/>
<path d="M115.762 88.6815C115.571 88.872 114.595 89.4672 113.619 89.991C110.857 91.4672 107.405 92.3482 102.619 92.7767L101 92.9196V94.8244V96.7529L103.143 96.5863C106.571 96.3244 109.524 95.6815 112.071 94.6101C113.81 93.8958 116.262 92.3005 116.357 91.8005C116.429 91.5386 116.405 90.6577 116.31 89.8244C116.143 88.491 116.071 88.372 115.762 88.6815Z" fill="#ECECEC"/>
<path d="M153.524 92.2763C152.596 94.1811 150.381 96.3002 148 97.5621C145.119 99.0859 141.715 99.943 136.905 100.395L135.286 100.538V102.443V104.372L137.429 104.205C145.5 103.586 151.5 100.514 153.715 95.8478C154.262 94.6811 154.334 94.2287 154.286 92.6573L154.215 90.8478L153.524 92.2763Z" fill="#ECECEC"/>
<path d="M84.8339 92.4906C84.0244 94.1811 81.7148 96.3478 79.4291 97.5621C76.5482 99.0859 73.1434 99.943 68.3339 100.395L66.7148 100.538V102.443V104.372L68.8577 104.205C76.7625 103.61 82.9529 100.491 85.0244 96.0621C85.5958 94.8716 86.0006 91.6097 85.6196 91.3954C85.5006 91.324 85.1434 91.824 84.8339 92.4906Z" fill="#ECECEC"/>
<path d="M115.762 96.3002C115.571 96.4906 114.595 97.0859 113.619 97.6097C110.857 99.0859 107.405 99.9668 102.619 100.395L101 100.538V102.443V104.372L103.143 104.205C106.571 103.943 109.524 103.3 112.071 102.229C113.81 101.514 116.262 99.9192 116.357 99.4192C116.429 99.1573 116.405 98.2763 116.31 97.443C116.143 96.1097 116.071 95.9906 115.762 96.3002Z" fill="#ECECEC"/>
<path d="M153.524 99.8955C152.596 101.8 150.381 103.919 148 105.181C145.119 106.705 141.715 107.562 136.905 108.015L135.286 108.157V110.062V111.991L137.429 111.824C145.5 111.205 151.5 108.134 153.715 103.467C154.262 102.3 154.334 101.848 154.286 100.276L154.215 98.4669L153.524 99.8955Z" fill="#ECECEC"/>
<path d="M84.8339 100.11C84.0244 101.8 81.7148 103.967 79.4291 105.181C76.5482 106.705 73.1434 107.562 68.3339 108.015L66.7148 108.157V110.062V111.991L68.8577 111.824C76.7625 111.229 82.9529 108.11 85.0244 103.681C85.5958 102.491 86.0006 99.2288 85.6196 99.0145C85.5006 98.9431 85.1434 99.4431 84.8339 100.11Z" fill="#ECECEC"/>
<path d="M115.762 103.919C115.571 104.11 114.595 104.705 113.619 105.229C110.857 106.705 107.405 107.586 102.619 108.015L101 108.157V110.062V111.991L103.143 111.824C106.571 111.562 109.524 110.919 112.071 109.848C113.81 109.134 116.262 107.538 116.357 107.038C116.429 106.776 116.405 105.895 116.31 105.062C116.143 103.729 116.071 103.61 115.762 103.919Z" fill="#ECECEC"/>
<path d="M153.524 107.515C152.596 109.419 150.381 111.538 148 112.8C145.119 114.324 141.715 115.181 136.905 115.634L135.286 115.777V117.681V119.61L137.429 119.443C145.5 118.824 151.5 115.753 153.715 111.086C154.262 109.919 154.334 109.467 154.286 107.896L154.215 106.086L153.524 107.515Z" fill="#ECECEC"/>
<path d="M84.8339 107.729C84.0244 109.419 81.7148 111.586 79.4291 112.8C76.5482 114.324 73.1434 115.181 68.3339 115.634L66.7148 115.777V117.681V119.61L68.8577 119.443C76.7625 118.848 82.9529 115.729 85.0244 111.3C85.5958 110.11 86.0006 106.848 85.6196 106.634C85.5006 106.562 85.1434 107.062 84.8339 107.729Z" fill="#ECECEC"/>
<path d="M115.762 111.538C115.571 111.729 114.595 112.324 113.619 112.848C110.857 114.324 107.405 115.205 102.619 115.634L101 115.777V117.681V119.61L103.143 119.443C106.571 119.181 109.524 118.538 112.071 117.467C113.81 116.753 116.262 115.157 116.357 114.657C116.429 114.396 116.405 113.515 116.31 112.681C116.143 111.348 116.071 111.229 115.762 111.538Z" fill="#ECECEC"/>
<path d="M153.524 115.134C152.596 117.039 150.381 119.158 148 120.419C145.119 121.943 141.715 122.8 136.905 123.253L135.286 123.396V125.3V127.229L137.429 127.062C145.5 126.443 151.5 123.372 153.715 118.705C154.262 117.539 154.334 117.086 154.286 115.515L154.215 113.705L153.524 115.134Z" fill="#ECECEC"/>
<path d="M84.8339 115.348C84.0244 117.039 81.7148 119.205 79.4291 120.419C76.5482 121.943 73.1434 122.8 68.3339 123.253L66.7148 123.396V125.3V127.229L68.8577 127.062C76.7625 126.467 82.9529 123.348 85.0244 118.919C85.5958 117.729 86.0006 114.467 85.6196 114.253C85.5006 114.181 85.1434 114.681 84.8339 115.348Z" fill="#ECECEC"/>
<path d="M115.762 119.158C115.571 119.348 114.595 119.943 113.619 120.467C110.857 121.943 107.405 122.824 102.619 123.253L101 123.396V125.3V127.229L103.143 127.062C106.571 126.8 109.524 126.158 112.071 125.086C113.81 124.372 116.262 122.777 116.357 122.277C116.429 122.015 116.405 121.134 116.31 120.3C116.143 118.967 116.071 118.848 115.762 119.158Z" fill="#ECECEC"/>
<path d="M153.524 122.753C152.596 124.658 150.381 126.777 148 128.039C145.119 129.562 141.715 130.42 136.905 130.872L135.286 131.015V132.92V134.848L137.429 134.681C145.5 134.062 151.5 130.991 153.715 126.324C154.262 125.158 154.334 124.705 154.286 123.134L154.215 121.324L153.524 122.753Z" fill="#ECECEC"/>
<path d="M84.8339 122.967C84.0244 124.658 81.7148 126.824 79.4291 128.039C76.5482 129.562 73.1434 130.42 68.3339 130.872L66.7148 131.015V132.92V134.848L68.8577 134.681C76.7625 134.086 82.9529 130.967 85.0244 126.539C85.5958 125.348 86.0006 122.086 85.6196 121.872C85.5006 121.801 85.1434 122.301 84.8339 122.967Z" fill="#ECECEC"/>
<path d="M115.762 126.777C115.571 126.967 114.595 127.562 113.619 128.086C110.857 129.562 107.405 130.443 102.619 130.872L101 131.015V132.92V134.848L103.143 134.681C107.952 134.324 111.31 133.348 114.619 131.348C116.429 130.277 116.548 129.991 116.286 127.801C116.143 126.586 116.071 126.467 115.762 126.777Z" fill="#ECECEC"/>
<path d="M153.524 130.372C152.596 132.276 150.381 134.395 148 135.657C145.119 137.181 141.715 138.038 136.905 138.491L135.286 138.633V140.538V142.467L137.429 142.3C145.5 141.681 151.5 138.61 153.715 133.943C154.262 132.776 154.334 132.324 154.286 130.753L154.215 128.943L153.524 130.372Z" fill="#ECECEC"/>
<path d="M84.8339 130.586C84.0244 132.276 81.7148 134.443 79.4291 135.657C76.5482 137.181 73.1434 138.038 68.3339 138.491L66.7148 138.633V140.538V142.467L68.8577 142.3C76.7625 141.705 82.9529 138.586 85.0244 134.157C85.5958 132.967 86.0006 129.705 85.6196 129.491C85.5006 129.419 85.1434 129.919 84.8339 130.586Z" fill="#ECECEC"/>
<path d="M115.762 134.395C115.571 134.586 114.595 135.181 113.619 135.705C110.857 137.181 107.405 138.062 102.619 138.491L101 138.633V140.538V142.467L103.143 142.3C106.571 142.038 109.524 141.395 112.071 140.324C113.81 139.61 116.262 138.014 116.357 137.514C116.429 137.253 116.405 136.372 116.31 135.538C116.143 134.205 116.071 134.086 115.762 134.395Z" fill="#ECECEC"/>
<path d="M153.524 137.991C152.596 139.896 150.381 142.015 148 143.277C145.119 144.8 141.715 145.658 136.905 146.11L135.286 146.253V148.134V150.015H136.905C140.072 150.015 145.024 148.824 147.786 147.372C150.786 145.824 152.643 144.015 153.762 141.61C154.262 140.491 154.334 139.991 154.286 138.419L154.215 136.562L153.524 137.991Z" fill="#ECECEC"/>
<path d="M84.8339 138.205C84.0244 139.896 81.7148 142.062 79.4291 143.277C76.5482 144.8 73.1434 145.658 68.3339 146.11L66.7148 146.253V148.134V150.015H68.3339C69.2148 150.015 70.8101 149.848 71.8815 149.681C76.3339 148.896 79.691 147.491 82.3339 145.324L83.9053 144.015L84.7625 144.8L85.6434 145.61L84.7625 144.658L83.8577 143.681L84.4291 142.848C84.7387 142.396 85.1672 141.443 85.3815 140.729C85.7863 139.396 85.9053 137.253 85.5958 137.086C85.4767 137.038 85.1434 137.538 84.8339 138.205Z" fill="#ECECEC"/>
<path d="M115.929 141.872C115.262 142.61 111.905 144.253 109.81 144.848C107.738 145.443 105.476 145.848 102.619 146.11L101 146.253V148.134V150.015H102.619C103.5 150.015 105.095 149.848 106.167 149.681C110.619 148.896 113.976 147.491 116.619 145.324L118.19 144.015L119.048 144.8C119.857 145.562 119.857 145.538 118.929 144.515C118.405 143.919 117.714 142.967 117.405 142.443C116.762 141.348 116.5 141.229 115.929 141.872Z" fill="#ECECEC"/>
<path d="M50.2857 144.657C50.7381 145.11 51.1428 145.491 51.2143 145.491C51.2857 145.491 50.9762 145.11 50.5238 144.657C50.0714 144.205 49.6666 143.824 49.5952 143.824C49.5238 143.824 49.8333 144.205 50.2857 144.657Z" fill="#ECECEC"/>
<path d="M63.2144 149.943C63.4287 149.991 63.8097 149.991 64.0478 149.943C64.2621 149.872 64.0716 149.824 63.6192 149.824C63.1668 149.824 62.9763 149.872 63.2144 149.943Z" fill="#ECECEC"/>
<path d="M97.5006 149.943C97.7149 149.991 98.0958 149.991 98.3339 149.943C98.5482 149.872 98.3577 149.824 97.9053 149.824C97.4529 149.824 97.2625 149.872 97.5006 149.943Z" fill="#ECECEC"/>
<path d="M131.786 149.943C132 149.991 132.381 149.991 132.619 149.943C132.833 149.872 132.643 149.824 132.19 149.824C131.738 149.824 131.548 149.872 131.786 149.943Z" fill="#ECECEC"/>
<path d="M98.7388 32.0623C95.9531 32.467 94.715 32.7527 93.0721 33.3956C91.5483 33.967 90.9055 34.3956 89.715 35.5861C86.9531 38.3242 86.9531 40.7527 89.715 43.4908C92.1436 45.9194 95.6436 47.0146 101.001 47.0146C104.453 47.0146 106.334 46.6813 108.953 45.6813C110.453 45.1099 111.096 44.6813 112.286 43.4908C115.048 40.7527 115.048 38.3242 112.286 35.5861C110.001 33.3242 106.858 32.2527 101.834 32.0623C100.525 31.9908 99.1436 32.0146 98.7388 32.0623ZM106.358 36.4432C108.31 37.0623 109.763 37.967 110.286 38.8956C110.596 39.467 110.596 39.6099 110.286 40.1813C109.763 41.1337 108.263 42.0385 106.239 42.6813C104.715 43.1337 103.929 43.2289 101.001 43.2289C98.0721 43.2289 97.2864 43.1337 95.7626 42.6813C93.7388 42.0385 92.2388 41.1337 91.715 40.1813C91.4055 39.6099 91.4055 39.467 91.715 38.8956C92.2388 37.9432 93.7388 37.0146 95.6436 36.467C97.9531 35.8004 98.3578 35.7527 101.715 35.848C103.953 35.8956 105.12 36.0623 106.358 36.4432Z" fill="#575757"/>
<path d="M64.4527 62.53C61.6669 62.9348 60.4289 63.2205 58.786 63.8634C57.2622 64.4348 56.6193 64.8634 55.4289 66.0539C52.6669 68.7919 52.6669 71.2205 55.4289 73.9586C57.8574 76.3872 61.3574 77.4824 66.7146 77.4824C70.1669 77.4824 72.0479 77.1491 74.6669 76.1491C76.1669 75.5777 76.8098 75.1491 78.0003 73.9586C80.7622 71.2205 80.7622 68.7919 78.0003 66.0539C75.7146 63.7919 72.5717 62.7205 67.5479 62.53C66.2384 62.4586 64.8574 62.4824 64.4527 62.53ZM72.0717 66.911C74.0241 67.53 75.4765 68.4348 76.0003 69.3634C76.3098 69.9348 76.3098 70.0777 76.0003 70.6491C75.4765 71.6015 73.9765 72.5062 71.9527 73.1491C70.4289 73.6015 69.6431 73.6967 66.7146 73.6967C63.786 73.6967 63.0003 73.6015 61.4765 73.1491C59.4527 72.5062 57.9527 71.6015 57.4289 70.6491C57.1193 70.0777 57.1193 69.9348 57.4289 69.3634C57.9527 68.411 59.4527 67.4824 61.3574 66.9348C63.6669 66.2681 64.0717 66.2205 67.4288 66.3158C69.6669 66.3634 70.8336 66.53 72.0717 66.911Z" fill="#575757"/>
<path d="M133.024 77.7766C130.238 78.1814 129 78.4671 127.357 79.11C125.833 79.6814 125.191 80.11 124 81.3004C121.238 84.0385 121.238 86.4671 124 89.2052C126.429 91.6338 129.929 92.729 135.286 92.729C138.738 92.729 140.619 92.3957 143.238 91.3957C144.738 90.8242 145.381 90.3957 146.572 89.2052C149.333 86.4671 149.333 84.0385 146.572 81.3004C144.286 79.0385 141.143 77.9671 136.119 77.7766C134.81 77.7052 133.429 77.729 133.024 77.7766ZM140.643 82.1576C142.595 82.7766 144.048 83.6814 144.572 84.61C144.881 85.1814 144.881 85.3242 144.572 85.8957C144.048 86.8481 142.548 87.7528 140.524 88.3957C139 88.8481 138.214 88.9433 135.286 88.9433C132.357 88.9433 131.572 88.8481 130.048 88.3957C128.024 87.7528 126.524 86.8481 126 85.8957C125.691 85.3242 125.691 85.1814 126 84.61C126.524 83.6576 128.024 82.729 129.929 82.1814C132.238 81.5147 132.643 81.4671 136 81.5623C138.238 81.61 139.405 81.7766 140.643 82.1576Z" fill="#575757"/>
</g>
<defs>
<clipPath id="clip0_530_2661">
<rect width="121.905" height="121.905" fill="white" transform="translate(40.0479 28.1099)"/>
</clipPath>
</defs>
</svg>
