<svg width="201" height="136" viewBox="0 0 201 136" fill="none" xmlns="http://www.w3.org/2000/svg">
<path d="M200.619 102.468C200.619 143.713 152.5 133.957 98.917 133.957C45.3336 133.957 0.619141 143.713 0.619141 102.468C0.619141 61.2229 45.3336 0.765869 98.917 0.765869C152.5 0.765869 200.619 61.2229 200.619 102.468Z" fill="#575757"/>
<path d="M117.491 120.128C116.512 120.532 116.363 121.277 116.363 125.766V129.957L116.98 130.574L117.597 131.191H131.576C141.789 131.191 145.661 131.128 146.002 130.936C146.959 130.447 146.98 130.234 147.002 125.596V121.149L146.385 120.532L145.768 119.915L131.853 119.936C124.214 119.936 117.746 120.021 117.491 120.128Z" fill="#ECECEC"/>
<path d="M116.98 109.468L116.363 110.085V114.149C116.363 118.234 116.491 119.107 117.172 119.617C117.47 119.851 120.427 119.894 131.725 119.915H145.916L146.47 119.383L147.002 118.83V114.426C147.002 112 146.916 109.915 146.831 109.787C146.746 109.681 146.448 109.404 146.151 109.213C145.682 108.872 144.427 108.851 131.619 108.851H117.597L116.98 109.468Z" fill="#ECECEC"/>
<path d="M78.3638 120.128C77.3 120.553 77.2148 120.979 77.2148 125.617V129.957L77.8319 130.574L78.4489 131.191H92.534H106.619L107.236 130.574L107.853 129.957V125.574C107.853 121.277 107.853 121.213 107.343 120.617L106.832 120.021L92.8106 119.979C85.1085 119.957 78.5978 120.021 78.3638 120.128Z" fill="#ECECEC"/>
<path d="M103.703 33.7228C103.639 33.8505 104.363 35.8931 105.299 38.2548C106.235 40.6377 107.001 42.7016 107.001 42.8505C107.001 42.9782 106.235 45.0207 105.299 47.3824C104.363 49.7228 103.639 51.7228 103.703 51.8505C103.788 51.9569 108.767 52.042 116.278 52.042H128.703V42.7867V33.5314H116.278C108.661 33.5314 103.788 33.6165 103.703 33.7228Z" fill="#FB923C"/>
<path d="M116.98 98.191L116.363 98.808V103.212V107.617L116.98 108.234L117.597 108.851H131.682H145.768L146.385 108.234L147.002 107.617V103.212V98.808L146.385 98.191L145.768 97.574H131.682H117.597L116.98 98.191Z" fill="#ECECEC"/>
<path d="M77.768 109.511L77.2148 110.17V114.468C77.2148 118.766 77.2148 118.787 77.7468 119.362L78.2574 119.915H92.534H106.811L107.321 119.362C107.853 118.787 107.853 118.766 107.853 114.383V110L107.257 109.426L106.662 108.851H92.4914H78.3212L77.768 109.511Z" fill="#ECECEC"/>
<path d="M129.173 30.5102C128.96 30.6592 128.896 35.3826 128.79 52.957L128.662 75.2336H131.726H134.768L134.726 53.0847C134.683 36.9783 134.598 30.8507 134.428 30.6379C134.151 30.2975 129.662 30.2124 129.173 30.5102Z" fill="#ECECEC"/>
<path d="M117.916 75.2761C117.555 75.3612 117.044 75.7016 116.81 75.9995C116.385 76.5314 116.363 76.8506 116.363 80.7442C116.385 85.191 116.47 85.6804 117.427 86.191L117.916 86.4676L117.47 86.5953C116.512 86.9144 116.363 87.6591 116.363 92.1272V96.2548L116.916 96.9144L117.47 97.574H131.682H145.874L146.448 97.0208L147.002 96.4463V92.0421C147.002 87.8931 146.98 87.5953 146.555 87.0633C146.321 86.7655 145.959 86.5101 145.768 86.4889C145.491 86.4889 145.512 86.4463 145.853 86.2974C146.916 85.8718 147.002 85.4463 147.002 80.7442V76.3612L146.448 75.808C146.151 75.5101 145.576 75.2123 145.129 75.1484C143.81 74.957 118.64 75.0633 117.916 75.2761Z" fill="#ECECEC"/>
<path d="M39.0877 120.255C38.7685 120.425 38.4068 120.745 38.2792 120.979C38.1515 121.213 38.0664 123.17 38.0664 125.723V130.085L38.726 130.638L39.3856 131.191H53.4281H67.4707L68.0877 130.574L68.7047 129.957V125.766C68.7047 121.234 68.577 120.638 67.5558 120.17C67.1515 119.979 63.3856 119.915 53.3217 119.936C41.726 119.936 39.577 119.979 39.0877 120.255Z" fill="#ECECEC"/>
<path d="M77.8319 98.1915L77.2148 98.8085V103.213V107.617L77.8319 108.234L78.4489 108.851H92.534H106.619L107.236 108.234L107.853 107.617V103.213V98.8085L107.236 98.1915L106.619 97.5745H92.534H78.4489L77.8319 98.1915Z" fill="#ECECEC"/>
<path d="M67.0879 64.4893C67.0879 65.8935 67.1092 66.4467 67.1517 65.7021C67.1943 64.9787 67.1943 63.8297 67.1517 63.1489C67.1092 62.4893 67.0879 63.085 67.0879 64.4893Z" fill="#96ECEC"/>
<path d="M53.7261 66.5531L51.6836 68.319V72.2552C51.6836 76.0212 51.7049 76.2126 52.0878 76.2126C52.3219 76.2126 52.4708 76.1488 52.4283 76.085C52.3857 75.9999 53.1517 75.5956 54.1517 75.1488L55.9389 74.3403V69.5743C55.9389 66.9573 55.8964 64.8084 55.8538 64.8084C55.79 64.8084 54.8325 65.5956 53.7261 66.5531Z" fill="#ECECEC"/>
<path d="M67.0445 78.7872C67.0871 85.1914 67.1296 88.5531 67.1722 86.234C67.1934 83.9361 67.2573 82.0425 67.2998 82.0425C67.3424 82.0425 68.236 82.617 69.2573 83.3191L71.1509 84.617L71.2147 77.851L71.2573 71.085L70.47 70.3829C70.0232 69.9787 69.0658 69.085 68.3424 68.3829L67.002 67.1063L67.0445 78.7872Z" fill="#ECECEC"/>
<path d="M57.6621 43.1065C55.7685 43.5108 53.7898 45.1491 52.9175 47.0427C52.1941 48.6384 52.2153 51.1065 53.0026 52.7023C54.4281 55.5959 57.6196 57.2342 60.577 56.5533C61.0664 56.447 61.4707 56.3619 61.4707 56.4044C61.4707 56.4257 61.0664 56.7236 60.577 57.064C56.5132 59.8087 55.9387 60.5108 55.9387 62.9576V64.3619L52.1728 67.6172C50.0877 69.4044 48.109 71.1278 47.7473 71.4257C47.4068 71.7448 45.3217 73.5321 43.109 75.4257L39.1302 78.8725V80.4682C39.1302 81.5746 39.2153 82.0853 39.4068 82.1704C39.5558 82.2129 43.3004 80.5533 47.726 78.4257C52.1515 76.3193 55.8111 74.5959 55.8536 74.5959C55.8962 74.5959 55.9387 77.9789 55.96 82.0853V89.5959L53.9813 99.1065L52.0026 108.638H45.9813C39.5983 108.638 38.7898 108.745 38.3004 109.66C38.1515 109.936 38.0664 111.745 38.0664 114.49C38.0664 118.851 38.0664 118.872 38.5983 119.383L39.109 119.915H53.3643H67.5983L68.1515 119.255L68.7047 118.596V114.362V110.128L68.0877 109.447L67.4707 108.745L62.2153 108.681C57.9387 108.638 56.9813 108.575 57.0664 108.341C57.1302 108.17 59.3643 104.319 62.0451 99.7874L66.8962 91.5108L67.0026 86.8087L67.109 82.1278L72.3856 85.7661C75.3004 87.7661 77.7473 89.5321 77.8324 89.7023C77.9387 89.8725 78.5132 91.7236 79.1515 93.7874L80.3004 97.5746H83.5558C85.3217 97.5746 86.7898 97.5321 86.7898 97.4682C86.7898 97.4044 86.2153 95.2342 85.5132 92.6384C82.1302 80.1704 82.5132 81.4044 81.577 80.447C81.0877 79.9789 77.6196 76.7236 73.8536 73.2342L67.0026 66.8725V64.4895C67.0026 62.2129 67.0238 62.0853 67.5558 61.4895C68.0877 60.915 71.109 57.8087 78.343 50.4044L81.4707 47.1916V45.1704C81.4707 43.3406 81.4281 43.1278 81.0451 43.0001C80.7473 42.915 78.8324 44.1491 73.343 48.0214C69.3217 50.8512 65.7047 53.4257 65.3004 53.7235L64.577 54.2767L65.0451 53.5108C65.7047 52.4257 66.2153 50.2342 66.0664 49.1916C65.7685 47.2767 65.2792 46.2767 64.0238 45.0214C62.3217 43.3193 60.0238 42.6172 57.6621 43.1065ZM55.8749 74.298C55.8324 74.3406 54.8749 74.8087 53.7473 75.3193L51.6834 76.2767V72.298V68.3193L53.7685 66.5321L55.8324 64.7448L55.8962 69.4895C55.9175 72.1065 55.9175 74.2555 55.8749 74.298ZM70.4707 70.3831L71.2579 71.0853L71.2153 77.8512L71.1515 84.6172L69.0877 83.1916L67.0026 81.7874V74.447V67.1065L68.343 68.3831C69.0664 69.0853 70.0238 69.9789 70.4707 70.3831Z" fill="#ECECEC"/>
<ellipse cx="82.2154" cy="29.2766" rx="0.744681" ry="0.851064" fill="#D9D9D9"/>
<ellipse cx="94.981" cy="42.0422" rx="0.744681" ry="0.851064" fill="#D9D9D9"/>
<ellipse cx="107.747" cy="54.8083" rx="0.744681" ry="0.851064" fill="#D9D9D9"/>
<ellipse cx="86.4712" cy="76.085" rx="0.744681" ry="0.851064" fill="#D9D9D9"/>
<ellipse cx="65.1939" cy="97.3616" rx="0.744681" ry="0.851064" fill="#D9D9D9"/>
<ellipse cx="37.5337" cy="97.3616" rx="0.744681" ry="0.851064" fill="#D9D9D9"/>
<ellipse cx="20.5123" cy="82.468" rx="0.744681" ry="0.851064" fill="#D9D9D9"/>
<ellipse cx="35.4048" cy="54.8083" rx="0.744681" ry="0.851064" fill="#D9D9D9"/>
<ellipse cx="52.6412" cy="25.0212" rx="0.744681" ry="0.851064" fill="#D9D9D9"/>
<ellipse cx="95.4068" cy="14.3828" rx="0.744681" ry="0.851064" fill="#D9D9D9"/>
<ellipse cx="142.428" cy="27.1489" rx="0.744681" ry="0.851064" fill="#D9D9D9"/>
<ellipse cx="157.534" cy="39.9148" rx="0.744681" ry="0.851064" fill="#D9D9D9"/>
<ellipse cx="149.235" cy="56.936" rx="0.744681" ry="0.851064" fill="#D9D9D9"/>
<ellipse cx="160.088" cy="73.9573" rx="0.744681" ry="0.851064" fill="#D9D9D9"/>
<ellipse cx="170.938" cy="90.9788" rx="0.744681" ry="0.851064" fill="#D9D9D9"/>
<ellipse cx="158.385" cy="108" rx="0.744681" ry="0.851064" fill="#D9D9D9"/>
<ellipse cx="181.79" cy="110.128" rx="0.744681" ry="0.851064" fill="#D9D9D9"/>
<ellipse cx="164.77" cy="120.766" rx="0.744681" ry="0.851064" fill="#D9D9D9"/>
</svg>
