<svg width="208" height="150" viewBox="0 0 208 150" fill="none" xmlns="http://www.w3.org/2000/svg">
<path d="M206.906 110.795C200.241 146.977 26.02 141.564 19.7492 141.564C-44.8602 141.564 67.6536 107.43 108.887 26.4953C150.12 -54.4392 213.571 74.6128 206.906 110.795Z" fill="#5A5A5B"/>
<g clip-path="url(#clip0_552_2760)">
<ellipse cx="122.555" cy="95.8838" rx="35.0103" ry="34.7541" fill="#ECECEC"/>
<path d="M144.324 114.318C142.944 116.246 139.563 119.65 137.516 121.174L135.707 122.531L137.897 124.721L140.063 126.887L144.824 122.126L149.585 117.365L147.419 115.199L145.253 113.033L144.324 114.318Z" fill="#575757"/>
<path d="M149.776 127.196L142.135 134.861L148.229 141.074C154.394 147.358 155.418 148.215 157.703 148.906C159.226 149.358 162.368 149.358 164.011 148.882C167.486 147.882 170.176 145.24 171.343 141.717C172.318 138.813 171.842 134.909 170.224 132.362C169.414 131.1 165.415 126.815 165.225 127.006C165.13 127.077 163.368 125.435 161.25 123.316L157.441 119.507L149.776 127.196Z" fill="#575757"/>
<path d="M55.0355 27.7422C54.607 27.9327 54.25 28.0279 54.25 27.9565C54.25 27.9089 53.9643 28.0279 53.6073 28.2659C52.6075 28.9086 50.9174 30.7416 50.7746 31.3605C50.6793 31.6699 50.5603 31.908 50.4651 31.908C50.3699 31.908 50.2509 32.0508 50.2033 32.1936C50.1794 32.3603 50.0842 37.621 50.0366 43.8577L49.9414 55.2361H107.571H165.201L165.106 44.2147C165.059 38.1685 164.963 33.003 164.916 32.7411C164.654 31.6223 163.94 30.4083 162.964 29.4085C162.369 28.8134 161.821 28.3373 161.75 28.3373C161.655 28.3373 161.107 28.1231 160.536 27.8613C159.488 27.3852 159.036 27.3852 107.643 27.3852C63.605 27.409 55.6782 27.4566 55.0355 27.7422ZM69.6275 37.0259C70.8415 37.74 71.8651 39.3349 72.0317 40.7869C72.3888 43.7863 70.0321 46.4285 66.9852 46.4285C65.4379 46.4285 64.0573 45.762 63.1051 44.6194C61.7245 42.9531 61.5102 41.0488 62.4862 39.0968C63.8193 36.3832 66.9852 35.4786 69.6275 37.0259ZM84.7431 36.4546C89.2421 37.8114 89.504 44.2385 85.1478 46.0477C80.1727 48.1424 75.8404 41.8581 79.5776 37.9304C81.0297 36.3832 82.7912 35.8833 84.7431 36.4546ZM100.93 36.5498C104.977 37.978 105.548 43.453 101.858 45.643C98.3591 47.7616 94.2172 45.3811 94.2172 41.3106C94.2172 39.7634 94.8599 38.3827 96.0263 37.4543C97.5974 36.2165 99.1447 35.9309 100.93 36.5498Z" fill="#575757"/>
<path d="M64.8421 36.8357C62.8663 37.8593 61.6523 40.0969 62.0094 42.0726C62.2474 43.5485 63.1996 44.9291 64.4374 45.6432C67.4843 47.4285 71.3406 45.6194 71.9595 42.0964C72.3166 40.1445 71.1026 37.8593 69.222 36.9071C68.1032 36.312 65.8657 36.2882 64.8421 36.8357Z" fill="#ECECEC"/>
<path d="M81.0295 36.8355C78.6014 38.1209 77.5541 41.1916 78.7443 43.5482C80.363 46.6904 84.2906 47.3569 86.7663 44.8813C89.956 41.6677 87.7423 36.407 83.1957 36.4308C82.3387 36.4546 81.4341 36.5974 81.0295 36.8355Z" fill="#ECECEC"/>
<path d="M96.8348 36.9785C93.8354 38.5734 93.3594 42.8819 95.9302 45.0719C99.477 48.1189 104.571 45.5004 104.19 40.8348C103.976 38.2639 101.929 36.431 99.239 36.431C98.2868 36.431 97.5727 36.5976 96.8348 36.9785Z" fill="#ECECEC"/>
<path d="M50.0125 96.5841L50.0839 137.718L50.6076 138.67C51.3217 139.979 52.7023 141.288 54.1306 141.931L55.3208 142.479L102.453 142.55L149.585 142.598L145.729 138.741L141.849 134.861L149.633 127.077L157.441 119.27L161.297 123.126L165.177 127.006V91.2282V55.4743H107.571H49.9648L50.0125 96.5841ZM124.496 65.0198C135.589 67.0431 144.706 74.8509 148.49 85.539C149.752 89.1096 150.252 92.0375 150.252 95.9414C150.276 101.321 149.038 106.368 146.61 110.819L145.467 112.961L147.633 115.175L149.823 117.365L144.944 122.245L140.064 127.125L137.874 124.935L135.684 122.745L133.589 123.84C127.9 126.792 121.901 127.982 115.831 127.411C101.525 126.03 90.3606 116.127 87.4088 102.131C86.8137 99.3216 86.8137 93.0373 87.4088 90.2522C89.8845 78.6596 97.2638 69.9472 107.809 66.2338C113.26 64.3295 118.569 63.9248 124.496 65.0198Z" fill="#ECECEC"/>
<path d="M113.122 110.366L113.474 99.2788L119.027 99.4129C124.462 99.5603 124.614 99.5481 125.325 98.8791C126.365 97.9001 126.406 96.5205 125.427 95.4806C124.742 94.7526 124.659 94.7332 117.744 94.5075C110.46 94.2705 109.614 94.3797 109.022 95.5911C108.86 95.9398 108.531 101.807 108.309 108.587C107.883 121.574 107.893 121.827 109.32 122.51C110.315 123.012 111.296 122.873 112.076 122.139C112.77 121.486 112.776 121.284 113.122 110.366Z" fill="#FB923C"/>
<path d="M125.521 97.3327C125.521 97.3327 119.882 91.0916 118.13 89.0609C116.379 87.0303 119.484 83.4444 122.843 87.0303C126.202 90.6162 131.165 96.5689 131.288 96.9333C131.695 98.219 131.158 98.881 125.719 103.733C120.556 108.337 120.482 108.381 119.484 108.326C118.057 108.248 117.136 107.22 117.214 105.794C117.268 104.82 117.369 104.706 121.407 101.065L125.521 97.3327Z" fill="#FB923C"/>
<path d="M114.695 64.6388C100.413 66.4479 89.6294 76.9218 87.2728 91.2995C86.8205 94.0608 86.9395 99.7976 87.5347 102.487C91.8908 122.34 113.695 132.933 132.12 124.149C135.5 122.531 137.619 121.079 140.237 118.555C143.046 115.842 144.831 113.485 146.402 110.438C152.234 98.9883 150.878 85.9674 142.784 75.8982C138.452 70.5185 131.953 66.6384 124.717 65.1149C122.194 64.5674 117.076 64.3294 114.695 64.6388ZM122.646 73.2321C129.882 74.5414 136.309 79.5641 139.356 86.2292C140.737 89.2762 141.285 91.966 141.285 95.7033C141.285 99.393 140.975 101.297 139.785 104.32C137.047 111.462 130.977 116.603 123.289 118.365C120.67 118.96 115.719 118.912 113.053 118.246C104.531 116.127 98.2703 109.914 96.0804 101.416C95.6043 99.512 95.4853 98.4646 95.4614 96.0604C95.4376 89.7761 97.461 84.5153 101.603 80.1354C106.935 74.4462 114.909 71.8515 122.646 73.2321Z" fill="#575757"/>
</g>
<defs>
<clipPath id="clip0_552_2760">
<rect width="121.877" height="121.877" fill="white" transform="translate(49.9648 27.3855)"/>
</clipPath>
</defs>
</svg>
