<svg width="201" height="146" viewBox="0 0 201 146" fill="none" xmlns="http://www.w3.org/2000/svg">
<path d="M200.434 85.6862C200.434 118.56 155.662 145.21 100.434 145.21C45.2051 145.21 0.433594 118.56 0.433594 85.6862C0.433594 52.8121 45.2051 39.9719 100.434 39.9719C155.662 39.9719 200.434 52.8121 200.434 85.6862Z" fill="#5A5A5B"/>
<g clip-path="url(#clip0_552_2782)">
<path d="M81.4332 24.4244V35.091L82.6713 36.4244C84.576 38.472 85.076 39.6625 85.0522 42.1149C85.0522 44.5434 84.5522 45.7815 82.7665 47.7101C80.4094 50.2815 76.5998 52.1149 71.6237 53.091C69.5998 53.4958 63.1951 53.4958 60.9094 53.091C58.3141 52.6387 55.576 51.7339 53.4094 50.6149C51.076 49.4006 48.5998 47.0434 47.9094 45.3768C47.6713 44.7577 47.3856 44.2577 47.3141 44.2577C47.2189 44.2577 47.1475 59.4958 47.1475 78.1149C47.1475 107.115 47.1951 112.115 47.4808 112.948C47.6713 113.472 47.8617 113.996 47.8856 114.115C47.9094 114.234 48.0998 114.567 48.2903 114.805C50.1475 117.282 52.7189 119.139 55.7189 120.234C58.0284 121.067 58.3856 121.186 58.457 121.21C60.7189 121.686 62.4094 121.924 64.076 122.02L66.1475 122.139V120.258V118.353L67.7665 118.21C72.576 117.758 75.9808 116.901 78.8617 115.377C81.1237 114.162 83.4332 111.996 84.2903 110.282C84.6237 109.591 84.957 109.115 85.0522 109.186C85.3379 109.472 85.1951 111.543 84.8141 112.829C84.5998 113.543 84.1713 114.496 83.8617 114.948L83.2903 115.782L84.076 116.591C85.3141 117.901 87.9094 119.472 90.0046 120.234C92.5522 121.139 92.6713 121.186 92.8141 121.21C95.5284 121.758 96.6237 121.924 98.3617 122.02L100.433 122.139V120.258V118.353L102.052 118.21C104.909 117.948 107.171 117.543 109.243 116.948C111.29 116.377 114.433 114.853 115.338 113.996C116.028 113.353 116.195 113.424 116.814 114.52C118.171 116.901 120.981 119.043 124.29 120.234C126.6 121.067 126.957 121.186 127.028 121.21C129.29 121.686 130.981 121.924 132.647 122.02L134.719 122.139V120.258V118.353L136.338 118.21C143.171 117.591 147.695 115.948 150.79 112.948C152.862 110.948 153.814 108.901 153.719 106.71L153.647 105.091L153.076 106.234C150.838 110.758 144.767 113.805 136.862 114.401L134.719 114.567V112.639V110.734L136.338 110.591C143.171 109.972 147.695 108.329 150.79 105.329C152.862 103.329 153.814 101.282 153.719 99.0911L153.647 97.472L153.076 98.6149C150.838 103.139 144.767 106.186 136.862 106.782L134.719 106.948V105.02V103.115L136.338 102.972C143.171 102.353 147.695 100.71 150.79 97.7101C152.862 95.7101 153.814 93.6625 153.719 91.472L153.647 89.853L153.076 90.9958C150.838 95.5196 144.767 98.5672 136.862 99.1625L134.719 99.3291V97.4006V95.4958L136.338 95.353C143.171 94.7339 147.695 93.0911 150.79 90.0911C152.862 88.0911 153.814 86.0434 153.719 83.853L153.647 82.2339L153.076 83.3768C150.838 87.9006 144.767 90.9482 136.862 91.5434L134.719 91.7101V89.7815V87.8768L136.338 87.7339C143.171 87.1149 147.695 85.472 150.79 82.472C152.862 80.472 153.814 78.4244 153.719 76.2339L153.647 74.6149L153.076 75.7577C150.838 80.2815 144.767 83.3291 136.862 83.9244L134.719 84.0911V82.1625V80.2577L136.338 80.1149C143.171 79.4958 147.695 77.853 150.79 74.853C152.862 72.853 153.814 70.8053 153.719 68.6149L153.647 66.9958L153.076 68.1387C150.838 72.6625 144.767 75.7101 136.862 76.3053L134.719 76.472V74.5434V72.6387L136.338 72.4958C143.171 71.8768 147.695 70.2339 150.79 67.2339C152.862 65.2339 153.814 63.1863 153.719 60.9958L153.647 59.3768L153.076 60.5196C151.933 62.8291 149.171 65.2339 146.147 66.5672C144.743 67.1863 142.124 67.9482 140.195 68.3291C138.171 68.7339 131.767 68.7339 129.481 68.3291C121.719 66.972 116.171 62.8053 115.719 58.0196C115.671 57.4006 115.576 56.8768 115.528 56.8768C115.481 56.8768 114.886 57.2339 114.195 57.6863C111.171 59.5911 107.362 60.7101 102.576 61.0672L100.433 61.2339V59.3053V57.4006L102.052 57.2577C108.886 56.6387 113.409 54.9958 116.505 51.9958C118.576 49.9958 119.528 47.9482 119.433 45.7577L119.362 44.1387L118.79 45.2815C116.552 49.8053 110.481 52.853 102.576 53.4482L100.433 53.6149V51.6863V49.7815L102.052 49.6387C108.886 49.0196 113.409 47.3768 116.505 44.3768C118.576 42.3768 119.528 40.3291 119.433 38.1387L119.362 36.5196L118.79 37.6625C116.552 42.1863 110.481 45.2339 102.576 45.8291L100.433 45.9958V44.0672V42.1625L102.052 42.0196C108.886 41.4006 113.409 39.7577 116.505 36.7577C118.576 34.7577 119.528 32.7101 119.433 30.5196L119.362 28.9006L118.79 30.0434C116.552 34.5672 110.481 37.6149 102.576 38.2101L100.433 38.3768V36.4482V34.5434L102.052 34.4006C108.886 33.7815 113.409 32.1387 116.505 29.1387C118.576 27.1387 119.528 25.091 119.433 22.9006L119.362 21.2815L118.79 22.4244C116.552 26.9482 110.481 29.9958 102.576 30.591L100.433 30.7577V28.8291V26.9244L102.052 26.7815C108.886 26.1625 113.409 24.5196 116.505 21.5196C118.576 19.5196 119.528 17.472 119.433 15.2815L119.362 13.6625L118.79 14.8053C117.267 17.8768 113.743 20.4244 109.124 21.8291C106.195 22.6863 104.457 22.9244 100.671 22.9244C95.2427 22.9244 91.576 22.1387 87.6951 20.1387C85.3617 18.9244 82.8856 16.5672 82.1951 14.9006C81.957 14.2815 81.6713 13.7815 81.576 13.7815C81.5046 13.7815 81.4332 18.5672 81.4332 24.4244ZM85.1237 50.091C84.9808 52.1863 84.3141 53.6387 82.7665 55.3291C79.8141 58.5672 74.7427 60.5911 68.2903 61.0672L66.1475 61.2339V59.3053V57.4006L67.7665 57.2577C72.576 56.8053 75.9808 55.9482 78.8617 54.4244C81.1475 53.2101 83.457 51.0434 84.2665 49.353C84.576 48.6863 84.9332 48.1863 85.0522 48.2577C85.1713 48.3291 85.1951 49.1387 85.1237 50.091ZM85.1237 57.7101C84.9808 59.8053 84.3141 61.2577 82.7665 62.9482C79.8141 66.1863 74.7427 68.2101 68.2903 68.6863L66.1475 68.853V66.9244V65.0196L67.7665 64.8768C72.576 64.4244 75.9808 63.5672 78.8617 62.0434C81.1475 60.8291 83.457 58.6625 84.2665 56.972C84.576 56.3053 84.9332 55.8053 85.0522 55.8768C85.1713 55.9482 85.1951 56.7577 85.1237 57.7101ZM115.79 63.9006C115.695 64.4006 113.243 65.9958 111.505 66.7101C108.957 67.7815 106.005 68.4244 102.576 68.6863L100.433 68.853V66.9244V65.0196L102.052 64.8768C106.838 64.4482 110.29 63.5672 113.052 62.0911C114.028 61.5672 115.005 60.972 115.195 60.7815C115.505 60.472 115.576 60.5911 115.743 61.9244C115.838 62.7577 115.862 63.6387 115.79 63.9006ZM85.1237 65.3291C84.9808 67.4244 84.3141 68.8768 82.7665 70.5672C79.8141 73.8053 74.7427 75.8291 68.2903 76.3053L66.1475 76.472V74.5434V72.6387L67.7665 72.4958C72.576 72.0434 75.9808 71.1863 78.8617 69.6625C81.1475 68.4482 83.457 66.2815 84.2665 64.5911C84.576 63.9244 84.9332 63.4244 85.0522 63.4958C85.1713 63.5672 85.1951 64.3768 85.1237 65.3291ZM115.79 71.5196C115.695 72.0196 113.243 73.6149 111.505 74.3291C108.957 75.4006 106.005 76.0434 102.576 76.3053L100.433 76.472V74.5434V72.6387L102.052 72.4958C106.838 72.0672 110.29 71.1863 113.052 69.7101C114.028 69.1863 115.005 68.5911 115.195 68.4006C115.505 68.0911 115.576 68.2101 115.743 69.5434C115.838 70.3768 115.862 71.2577 115.79 71.5196ZM85.1237 72.9482C84.9808 75.0434 84.3141 76.4958 82.7665 78.1863C79.8141 81.4244 74.7427 83.4482 68.2903 83.9244L66.1475 84.0911V82.1625V80.2577L67.7665 80.1149C72.576 79.6625 75.9808 78.8053 78.8617 77.2815C81.1475 76.0672 83.457 73.9006 84.2665 72.2101C84.576 71.5434 84.9332 71.0434 85.0522 71.1149C85.1713 71.1863 85.1951 71.9958 85.1237 72.9482ZM115.79 79.1387C115.695 79.6387 113.243 81.2339 111.505 81.9482C108.957 83.0196 106.005 83.6625 102.576 83.9244L100.433 84.0911V82.1625V80.2577L102.052 80.1149C106.838 79.6863 110.29 78.8053 113.052 77.3291C114.028 76.8053 115.005 76.2101 115.195 76.0196C115.505 75.7101 115.576 75.8291 115.743 77.1625C115.838 77.9958 115.862 78.8768 115.79 79.1387ZM85.1237 80.5672C84.9808 82.6625 84.3141 84.1149 82.7665 85.8053C79.8141 89.0434 74.7427 91.0672 68.2903 91.5434L66.1475 91.7101V89.7815V87.8768L67.7665 87.7339C72.576 87.2815 75.9808 86.4244 78.8617 84.9006C81.1475 83.6863 83.457 81.5196 84.2665 79.8291C84.576 79.1625 84.9332 78.6625 85.0522 78.7339C85.1713 78.8053 85.1951 79.6149 85.1237 80.5672ZM115.79 86.7577C115.695 87.2577 113.243 88.853 111.505 89.5672C108.957 90.6387 106.005 91.2815 102.576 91.5434L100.433 91.7101V89.7815V87.8768L102.052 87.7339C106.838 87.3053 110.29 86.4244 113.052 84.9482C114.028 84.4244 115.005 83.8291 115.195 83.6387C115.505 83.3291 115.576 83.4482 115.743 84.7815C115.838 85.6149 115.862 86.4958 115.79 86.7577ZM85.1237 88.1863C84.9808 90.2815 84.3141 91.7339 82.7665 93.4244C79.8141 96.6625 74.7427 98.6863 68.2903 99.1625L66.1475 99.3291V97.4006V95.4958L67.7665 95.353C72.576 94.9006 75.9808 94.0434 78.8617 92.5196C81.1475 91.3053 83.457 89.1387 84.2665 87.4482C84.576 86.7815 84.9332 86.2815 85.0522 86.353C85.1713 86.4244 85.1951 87.2339 85.1237 88.1863ZM115.79 94.3768C115.695 94.8768 113.243 96.472 111.505 97.1863C108.957 98.2577 106.005 98.9006 102.576 99.1625L100.433 99.3291V97.4006V95.4958L102.052 95.353C106.838 94.9244 110.29 94.0434 113.052 92.5672C114.028 92.0434 115.005 91.4482 115.195 91.2577C115.505 90.9482 115.576 91.0672 115.743 92.4006C115.838 93.2339 115.862 94.1149 115.79 94.3768ZM85.1237 95.8053C84.9808 97.9006 84.3141 99.353 82.7665 101.043C79.8141 104.282 74.7427 106.305 68.2903 106.782L66.1475 106.948V105.02V103.115L67.7665 102.972C72.576 102.52 75.9808 101.662 78.8617 100.139C81.1475 98.9244 83.457 96.7577 84.2665 95.0672C84.576 94.4006 84.9332 93.9006 85.0522 93.972C85.1713 94.0434 85.1951 94.853 85.1237 95.8053ZM115.767 101.877C115.695 102.329 115.219 102.758 114.052 103.448C110.743 105.448 107.386 106.424 102.576 106.782L100.433 106.948V105.02V103.115L102.052 102.972C106.838 102.543 110.29 101.662 113.052 100.186C114.028 99.6625 115.005 99.0672 115.195 98.8768C115.505 98.5672 115.576 98.6863 115.719 99.9006C115.814 100.662 115.838 101.543 115.767 101.877ZM85.1237 103.424C84.9808 105.52 84.3141 106.972 82.7665 108.662C79.8141 111.901 74.7427 113.924 68.2903 114.401L66.1475 114.567V112.639V110.734L67.7665 110.591C72.576 110.139 75.9808 109.282 78.8617 107.758C81.1475 106.543 83.457 104.377 84.2665 102.686C84.576 102.02 84.9332 101.52 85.0522 101.591C85.1713 101.662 85.1951 102.472 85.1237 103.424ZM115.79 109.615C115.695 110.115 113.243 111.71 111.505 112.424C108.957 113.496 106.005 114.139 102.576 114.401L100.433 114.567V112.639V110.734L102.052 110.591C106.838 110.162 110.29 109.282 113.052 107.805C114.028 107.282 115.005 106.686 115.195 106.496C115.505 106.186 115.576 106.305 115.743 107.639C115.838 108.472 115.862 109.353 115.79 109.615Z" fill="#575757"/>
<path d="M95.0296 0.567022C86.6486 2.11464 81.3867 6.32893 81.3867 11.5432C81.3867 12.9242 81.5058 13.4718 82.1248 14.7337C83.982 18.567 88.8629 21.4956 95.1962 22.6146C97.482 23.0194 103.887 23.0194 105.911 22.6146C112.434 21.3527 117.006 18.5194 118.839 14.6385C119.363 13.567 119.482 12.948 119.482 11.567C119.482 6.2575 114.196 2.06702 105.649 0.567022C103.196 0.138451 97.4105 0.138451 95.0296 0.567022ZM106.268 4.66226C111.101 6.0194 113.768 8.49559 113.768 11.6385C113.768 14.8289 110.982 17.3527 106.03 18.6861C103.649 19.3289 97.2201 19.3289 94.8391 18.6861C89.8867 17.3527 87.101 14.8289 87.101 11.6385C87.101 8.44797 90.101 5.73369 94.8391 4.63845C95.7677 4.44798 96.7201 4.20988 96.982 4.16226C97.2439 4.09083 99.0772 4.09083 101.03 4.11464C103.649 4.18607 105.053 4.32893 106.268 4.66226Z" fill="#ECECEC"/>
<path d="M98.1725 8.06719C94.9344 8.42433 92.0773 9.6148 91.2916 10.9243C90.9106 11.6148 90.9106 11.6624 91.2916 12.3529C91.8392 13.2577 93.9582 14.3767 96.0535 14.8767C98.2201 15.3767 102.649 15.3767 104.815 14.8767C106.911 14.3767 109.03 13.2577 109.577 12.3529C109.958 11.6624 109.958 11.6148 109.577 10.9243C108.387 8.92433 102.911 7.56719 98.1725 8.06719Z" fill="#FB923C"/>
<path d="M118.672 18.6623C117.743 20.5671 115.529 22.6861 113.148 23.948C110.267 25.4719 106.862 26.329 102.053 26.7814L100.434 26.9242V28.829V30.7576L102.576 30.5909C110.648 29.9719 116.648 26.9004 118.862 22.2338C119.41 21.0671 119.481 20.6147 119.434 19.0433L119.362 17.2338L118.672 18.6623Z" fill="#ECECEC"/>
<path d="M118.672 26.2815C117.743 28.1862 115.529 30.3053 113.148 31.5672C110.267 33.091 106.862 33.9481 102.053 34.4005L100.434 34.5434V36.4481V38.3767L102.576 38.21C110.648 37.591 116.648 34.5196 118.862 29.8529C119.41 28.6862 119.481 28.2339 119.434 26.6624L119.362 24.8529L118.672 26.2815Z" fill="#ECECEC"/>
<path d="M60.7434 31.0433C52.3625 32.591 47.1006 36.8052 47.1006 42.0195C47.1006 43.4005 47.2196 43.9481 47.8387 45.21C49.6958 49.0433 54.5768 51.9719 60.9101 53.091C63.1958 53.4957 69.6006 53.4957 71.6244 53.091C76.6006 52.1148 80.4101 50.2814 82.7673 47.71C84.553 45.7814 85.053 44.5433 85.053 42.1148C85.0768 39.4719 84.5292 38.3291 82.1244 35.9243C79.5292 33.3529 76.3863 31.9243 71.3149 31.0195C68.9101 30.6148 63.1244 30.6148 60.7434 31.0433ZM71.9815 35.1386C76.8149 36.4957 79.4815 38.9719 79.4815 42.1148C79.4815 45.3052 76.6958 47.8291 71.7434 49.1624C69.3625 49.8052 62.9339 49.8052 60.553 49.1624C55.6006 47.8291 52.8149 45.3052 52.8149 42.1148C52.8149 38.9243 55.8149 36.21 60.553 35.1148C61.4815 34.9243 62.4339 34.6862 62.6958 34.6386C62.9577 34.5672 64.7911 34.5672 66.7434 34.591C69.3625 34.6624 70.7673 34.8052 71.9815 35.1386Z" fill="#ECECEC"/>
<path d="M63.8864 38.5433C60.6483 38.9004 57.7912 40.0909 57.0054 41.4004C56.6245 42.0909 56.6245 42.1385 57.0054 42.829C57.5531 43.7337 59.6721 44.8528 61.7673 45.3528C63.934 45.8528 68.3626 45.8528 70.5292 45.3528C72.6245 44.8528 74.7435 43.7337 75.2912 42.829C75.6721 42.1385 75.6721 42.0909 75.2912 41.4004C74.1007 39.4004 68.6245 38.0433 63.8864 38.5433Z" fill="#FB923C"/>
<path d="M118.672 33.9004C117.743 35.8051 115.529 37.9242 113.148 39.1861C110.267 40.7099 106.862 41.567 102.053 42.0194L100.434 42.1623V44.067V45.9956L102.576 45.8289C110.648 45.2099 116.648 42.1385 118.862 37.4718C119.41 36.3051 119.481 35.8527 119.434 34.2813L119.362 32.4718L118.672 33.9004Z" fill="#ECECEC"/>
<path d="M118.672 41.5195C117.743 43.4243 115.529 45.5433 113.148 46.8052C110.267 48.329 106.862 49.1862 102.053 49.6386L100.434 49.7814V51.6862V53.6147L102.576 53.4481C110.648 52.829 116.648 49.7576 118.862 45.0909C119.41 43.9243 119.481 43.4719 119.434 41.9005L119.362 40.0909L118.672 41.5195Z" fill="#ECECEC"/>
<path d="M129.338 46.2814C125.886 46.9242 123.1 47.9242 120.743 49.4004L119.505 50.1861L119.434 48.948L119.362 47.7099L118.672 49.1385C117.743 51.0433 115.529 53.1623 113.148 54.4242C110.267 55.948 106.862 56.8052 102.053 57.2576L100.434 57.4004V59.3052V61.2338L102.576 61.0671C107.362 60.7099 111.172 59.5909 114.195 57.6861C114.886 57.2338 115.481 56.8766 115.529 56.8766C115.576 56.8766 115.672 57.4004 115.719 58.0195C116.172 62.8052 121.719 66.9719 129.481 68.329C131.767 68.7338 138.172 68.7338 140.195 68.329C146.719 67.0671 151.291 64.2338 153.124 60.3528C153.648 59.2814 153.767 58.6623 153.767 57.2814C153.767 51.9719 148.481 47.7814 139.934 46.2814C137.481 45.8528 131.695 45.8528 129.338 46.2814ZM140.553 50.3766C145.386 51.7338 148.053 54.2099 148.053 57.3528C148.053 60.5433 145.267 63.0671 140.315 64.4004C137.934 65.0433 131.505 65.0433 129.124 64.4004C124.172 63.0671 121.386 60.5433 121.386 57.3528C121.386 54.1623 124.386 51.448 129.124 50.3528C130.053 50.1623 131.005 49.9242 131.267 49.8766C131.529 49.8052 133.362 49.8052 135.315 49.829C137.934 49.9004 139.338 50.0433 140.553 50.3766Z" fill="#ECECEC"/>
<path d="M132.458 53.7815C129.22 54.1387 126.362 55.3292 125.577 56.6387C125.196 57.3292 125.196 57.3768 125.577 58.0673C126.124 58.972 128.243 60.0911 130.339 60.5911C132.505 61.0911 136.934 61.0911 139.101 60.5911C141.196 60.0911 143.315 58.972 143.862 58.0673C144.243 57.3768 144.243 57.3292 143.862 56.6387C142.672 54.6387 137.196 53.2815 132.458 53.7815Z" fill="#FB923C"/>
<path d="M84.2675 49.3529C83.458 51.0434 81.1484 53.2101 78.8627 54.4244C75.9818 55.9482 72.577 56.8053 67.7675 57.2577L66.1484 57.4006V59.3053V61.2339L68.2913 61.0672C76.1961 60.472 82.3865 57.3529 84.458 52.9244C85.0294 51.7339 85.4342 48.472 85.0532 48.2577C84.9342 48.1863 84.577 48.6863 84.2675 49.3529Z" fill="#ECECEC"/>
<path d="M84.2675 56.9718C83.458 58.6623 81.1484 60.829 78.8627 62.0433C75.9818 63.5671 72.577 64.4242 67.7675 64.8766L66.1484 65.0195V66.9242V68.8528L68.2913 68.6861C76.1961 68.0909 82.3865 64.9718 84.458 60.5433C85.0294 59.3528 85.4342 56.0909 85.0532 55.8766C84.9342 55.8052 84.577 56.3052 84.2675 56.9718Z" fill="#ECECEC"/>
<path d="M115.195 60.7814C115.005 60.9718 114.029 61.5671 113.053 62.0909C110.291 63.5671 106.838 64.448 102.053 64.8766L100.434 65.0194V66.9242V68.8528L102.576 68.6861C106.005 68.4242 108.957 67.7814 111.505 66.7099C113.243 65.9956 115.695 64.4004 115.791 63.9004C115.862 63.6385 115.838 62.7575 115.743 61.9242C115.576 60.5909 115.505 60.4718 115.195 60.7814Z" fill="#ECECEC"/>
<path d="M152.958 64.3767C152.029 66.2814 149.815 68.4005 147.434 69.6624C144.553 71.1862 141.148 72.0434 136.339 72.4957L134.72 72.6386V74.5434V76.4719L136.863 76.3053C144.934 75.6862 150.934 72.6148 153.148 67.9481C153.696 66.7814 153.767 66.3291 153.72 64.7576L153.648 62.9481L152.958 64.3767Z" fill="#ECECEC"/>
<path d="M84.2675 64.591C83.458 66.2814 81.1484 68.4481 78.8627 69.6624C75.9818 71.1862 72.577 72.0434 67.7675 72.4957L66.1484 72.6386V74.5434V76.4719L68.2913 76.3053C76.1961 75.71 82.3865 72.591 84.458 68.1624C85.0294 66.9719 85.4342 63.71 85.0532 63.4957C84.9342 63.4243 84.577 63.9243 84.2675 64.591Z" fill="#ECECEC"/>
<path d="M115.195 68.4005C115.005 68.591 114.029 69.1862 113.053 69.71C110.291 71.1862 106.838 72.0672 102.053 72.4957L100.434 72.6386V74.5434V76.4719L102.576 76.3053C106.005 76.0434 108.957 75.4005 111.505 74.3291C113.243 73.6148 115.695 72.0195 115.791 71.5195C115.862 71.2576 115.838 70.3767 115.743 69.5434C115.576 68.21 115.505 68.091 115.195 68.4005Z" fill="#ECECEC"/>
<path d="M152.958 71.9956C152.029 73.9003 149.815 76.0194 147.434 77.2813C144.553 78.8051 141.148 79.6622 136.339 80.1146L134.72 80.2575V82.1622V84.0908L136.863 83.9242C144.934 83.3051 150.934 80.2337 153.148 75.567C153.696 74.4003 153.767 73.948 153.72 72.3765L153.648 70.567L152.958 71.9956Z" fill="#ECECEC"/>
<path d="M84.2675 72.2099C83.458 73.9003 81.1484 76.067 78.8627 77.2813C75.9818 78.8051 72.577 79.6622 67.7675 80.1146L66.1484 80.2575V82.1622V84.0908L68.2913 83.9242C76.1961 83.3289 82.3865 80.2099 84.458 75.7813C85.0294 74.5908 85.4342 71.3289 85.0532 71.1146C84.9342 71.0432 84.577 71.5432 84.2675 72.2099Z" fill="#ECECEC"/>
<path d="M115.195 76.0194C115.005 76.2099 114.029 76.8051 113.053 77.3289C110.291 78.8051 106.838 79.6861 102.053 80.1146L100.434 80.2575V82.1622V84.0908L102.576 83.9242C106.005 83.6622 108.957 83.0194 111.505 81.948C113.243 81.2337 115.695 79.6384 115.791 79.1384C115.862 78.8765 115.838 77.9956 115.743 77.1622C115.576 75.8289 115.505 75.7099 115.195 76.0194Z" fill="#ECECEC"/>
<path d="M152.958 79.6147C152.029 81.5195 149.815 83.6385 147.434 84.9004C144.553 86.4242 141.148 87.2814 136.339 87.7338L134.72 87.8766V89.7814V91.71L136.863 91.5433C144.934 90.9242 150.934 87.8528 153.148 83.1862C153.696 82.0195 153.767 81.5671 153.72 79.9957L153.648 78.1862L152.958 79.6147Z" fill="#ECECEC"/>
<path d="M84.2675 79.829C83.458 81.5195 81.1484 83.6862 78.8627 84.9004C75.9818 86.4242 72.577 87.2814 67.7675 87.7338L66.1484 87.8766V89.7814V91.71L68.2913 91.5433C76.1961 90.9481 82.3865 87.829 84.458 83.4004C85.0294 82.21 85.4342 78.9481 85.0532 78.7338C84.9342 78.6623 84.577 79.1623 84.2675 79.829Z" fill="#ECECEC"/>
<path d="M115.195 83.6385C115.005 83.829 114.029 84.4242 113.053 84.9481C110.291 86.4242 106.838 87.3052 102.053 87.7338L100.434 87.8766V89.7814V91.71L102.576 91.5433C106.005 91.2814 108.957 90.6385 111.505 89.5671C113.243 88.8528 115.695 87.2576 115.791 86.7576C115.862 86.4957 115.838 85.6147 115.743 84.7814C115.576 83.4481 115.505 83.329 115.195 83.6385Z" fill="#ECECEC"/>
<path d="M152.958 87.2339C152.029 89.1386 149.815 91.2577 147.434 92.5196C144.553 94.0434 141.148 94.9005 136.339 95.3529L134.72 95.4958V97.4005V99.3291L136.863 99.1624C144.934 98.5434 150.934 95.472 153.148 90.8053C153.696 89.6386 153.767 89.1862 153.72 87.6148L153.648 85.8053L152.958 87.2339Z" fill="#ECECEC"/>
<path d="M84.2675 87.4481C83.458 89.1386 81.1484 91.3053 78.8627 92.5196C75.9818 94.0434 72.577 94.9005 67.7675 95.3529L66.1484 95.4958V97.4005V99.3291L68.2913 99.1624C76.1961 98.5672 82.3865 95.4481 84.458 91.0196C85.0294 89.8291 85.4342 86.5672 85.0532 86.3529C84.9342 86.2815 84.577 86.7815 84.2675 87.4481Z" fill="#ECECEC"/>
<path d="M115.195 91.2577C115.005 91.4481 114.029 92.0434 113.053 92.5672C110.291 94.0434 106.838 94.9243 102.053 95.3529L100.434 95.4958V97.4005V99.3291L102.576 99.1624C106.005 98.9005 108.957 98.2577 111.505 97.1862C113.243 96.472 115.695 94.8767 115.791 94.3767C115.862 94.1148 115.838 93.2339 115.743 92.4005C115.576 91.0672 115.505 90.9481 115.195 91.2577Z" fill="#ECECEC"/>
<path d="M152.958 94.8528C152.029 96.7575 149.815 98.8766 147.434 100.138C144.553 101.662 141.148 102.519 136.339 102.972L134.72 103.115V105.019V106.948L136.863 106.781C144.934 106.162 150.934 103.091 153.148 98.4242C153.696 97.2575 153.767 96.8051 153.72 95.2337L153.648 93.4242L152.958 94.8528Z" fill="#ECECEC"/>
<path d="M84.2675 95.067C83.458 96.7575 81.1484 98.9242 78.8627 100.138C75.9818 101.662 72.577 102.519 67.7675 102.972L66.1484 103.115V105.019V106.948L68.2913 106.781C76.1961 106.186 82.3865 103.067 84.458 98.6385C85.0294 97.448 85.4342 94.1861 85.0532 93.9718C84.9342 93.9004 84.577 94.4004 84.2675 95.067Z" fill="#ECECEC"/>
<path d="M115.195 98.8766C115.005 99.067 114.029 99.6623 113.053 100.186C110.291 101.662 106.838 102.543 102.053 102.972L100.434 103.115V105.019V106.948L102.576 106.781C107.386 106.424 110.743 105.448 114.053 103.448C115.862 102.377 115.981 102.091 115.719 99.9004C115.576 98.6861 115.505 98.567 115.195 98.8766Z" fill="#ECECEC"/>
<path d="M152.958 102.472C152.029 104.377 149.815 106.496 147.434 107.758C144.553 109.281 141.148 110.139 136.339 110.591L134.72 110.734V112.639V114.567L136.863 114.4C144.934 113.781 150.934 110.71 153.148 106.043C153.696 104.877 153.767 104.424 153.72 102.853L153.648 101.043L152.958 102.472Z" fill="#ECECEC"/>
<path d="M84.2675 102.686C83.458 104.377 81.1484 106.543 78.8627 107.758C75.9818 109.281 72.577 110.139 67.7675 110.591L66.1484 110.734V112.639V114.567L68.2913 114.4C76.1961 113.805 82.3865 110.686 84.458 106.258C85.0294 105.067 85.4342 101.805 85.0532 101.591C84.9342 101.52 84.577 102.02 84.2675 102.686Z" fill="#ECECEC"/>
<path d="M115.195 106.496C115.005 106.686 114.029 107.281 113.053 107.805C110.291 109.281 106.838 110.162 102.053 110.591L100.434 110.734V112.639V114.567L102.576 114.4C106.005 114.139 108.957 113.496 111.505 112.424C113.243 111.71 115.695 110.115 115.791 109.615C115.862 109.353 115.838 108.472 115.743 107.639C115.576 106.305 115.505 106.186 115.195 106.496Z" fill="#ECECEC"/>
<path d="M152.958 110.091C152.029 111.996 149.815 114.115 147.434 115.377C144.553 116.9 141.148 117.758 136.339 118.21L134.72 118.353V120.234V122.115H136.339C139.505 122.115 144.458 120.924 147.22 119.472C150.22 117.924 152.077 116.115 153.196 113.71C153.696 112.591 153.767 112.091 153.72 110.52L153.648 108.662L152.958 110.091Z" fill="#ECECEC"/>
<path d="M84.2675 110.305C83.458 111.996 81.1484 114.162 78.8627 115.377C75.9818 116.9 72.577 117.758 67.7675 118.21L66.1484 118.353V120.234V122.115H67.7675C68.6484 122.115 70.2437 121.948 71.3151 121.781C75.7675 120.996 79.1246 119.591 81.7675 117.424L83.3389 116.115L84.1961 116.9L85.077 117.71L84.1961 116.758L83.2913 115.781L83.8627 114.948C84.1722 114.496 84.6008 113.543 84.8151 112.829C85.2199 111.496 85.3389 109.353 85.0294 109.186C84.9103 109.139 84.577 109.639 84.2675 110.305Z" fill="#ECECEC"/>
<path d="M115.362 113.972C114.695 114.71 111.338 116.353 109.243 116.948C107.172 117.543 104.91 117.948 102.053 118.21L100.434 118.353V120.234V122.115H102.053C102.934 122.115 104.529 121.948 105.6 121.781C110.053 120.996 113.41 119.591 116.053 117.424L117.624 116.115L118.481 116.9C119.291 117.662 119.291 117.639 118.362 116.615C117.838 116.02 117.148 115.067 116.838 114.543C116.195 113.448 115.934 113.329 115.362 113.972Z" fill="#ECECEC"/>
<path d="M49.7193 116.757C50.1717 117.21 50.5764 117.591 50.6479 117.591C50.7193 117.591 50.4098 117.21 49.9574 116.757C49.505 116.305 49.1002 115.924 49.0288 115.924C48.9574 115.924 49.2669 116.305 49.7193 116.757Z" fill="#ECECEC"/>
<path d="M62.648 122.043C62.8623 122.091 63.2433 122.091 63.4814 122.043C63.6956 121.972 63.5052 121.924 63.0528 121.924C62.6004 121.924 62.4099 121.972 62.648 122.043Z" fill="#ECECEC"/>
<path d="M96.9342 122.043C97.1484 122.091 97.5294 122.091 97.7675 122.043C97.9818 121.972 97.7913 121.924 97.3389 121.924C96.8865 121.924 96.6961 121.972 96.9342 122.043Z" fill="#ECECEC"/>
<path d="M131.219 122.043C131.434 122.091 131.815 122.091 132.053 122.043C132.267 121.972 132.076 121.924 131.624 121.924C131.172 121.924 130.981 121.972 131.219 122.043Z" fill="#ECECEC"/>
<path d="M98.1724 4.16236C95.3867 4.56713 94.1486 4.85284 92.5057 5.4957C90.9819 6.06713 90.3391 6.4957 89.1486 7.68617C86.3867 10.4243 86.3867 12.8528 89.1486 15.5909C91.5771 18.0195 95.0771 19.1147 100.434 19.1147C103.887 19.1147 105.768 18.7814 108.387 17.7814C109.887 17.21 110.53 16.7814 111.72 15.5909C114.482 12.8528 114.482 10.4243 111.72 7.68617C109.434 5.42427 106.291 4.35284 101.268 4.16236C99.9581 4.09094 98.5771 4.11475 98.1724 4.16236ZM105.791 8.54332C107.744 9.16236 109.196 10.0671 109.72 10.9957C110.03 11.5671 110.03 11.71 109.72 12.2814C109.196 13.2338 107.696 14.1386 105.672 14.7814C104.149 15.2338 103.363 15.329 100.434 15.329C97.5057 15.329 96.72 15.2338 95.1962 14.7814C93.1724 14.1386 91.6724 13.2338 91.1486 12.2814C90.8391 11.71 90.8391 11.5671 91.1486 10.9957C91.6724 10.0433 93.1724 9.11475 95.0771 8.56713C97.3867 7.90046 97.7914 7.85284 101.149 7.94808C103.387 7.9957 104.553 8.16236 105.791 8.54332Z" fill="#575757"/>
<path d="M63.8863 34.6299C61.1005 35.0347 59.8624 35.3204 58.2196 35.9632C56.6958 36.5347 56.0529 36.9632 54.8624 38.1537C52.1005 40.8918 52.1005 43.3204 54.8624 46.0585C57.291 48.487 60.791 49.5823 66.1482 49.5823C69.6005 49.5823 71.4815 49.2489 74.1005 48.2489C75.6005 47.6775 76.2434 47.2489 77.4339 46.0585C80.1958 43.3204 80.1958 40.8918 77.4339 38.1537C75.1482 35.8918 72.0053 34.8204 66.9815 34.6299C65.672 34.5585 64.291 34.5823 63.8863 34.6299ZM71.5053 39.0108C73.4577 39.6299 74.9101 40.5347 75.4339 41.4632C75.7434 42.0347 75.7434 42.1775 75.4339 42.7489C74.9101 43.7013 73.4101 44.6061 71.3863 45.2489C69.8624 45.7013 69.0767 45.7966 66.1482 45.7966C63.2196 45.7966 62.4339 45.7013 60.9101 45.2489C58.8863 44.6061 57.3863 43.7013 56.8624 42.7489C56.5529 42.1775 56.5529 42.0347 56.8624 41.4632C57.3863 40.5108 58.8863 39.5823 60.791 39.0347C63.1005 38.368 63.5053 38.3204 66.8624 38.4156C69.1005 38.4632 70.2672 38.6299 71.5053 39.0108Z" fill="#575757"/>
<path d="M132.458 49.8767C129.672 50.2815 128.434 50.5672 126.791 51.2101C125.267 51.7815 124.624 52.2101 123.434 53.4005C120.672 56.1386 120.672 58.5672 123.434 61.3053C125.862 63.7339 129.362 64.8291 134.719 64.8291C138.172 64.8291 140.053 64.4958 142.672 63.4958C144.172 62.9243 144.815 62.4958 146.005 61.3053C148.767 58.5672 148.767 56.1386 146.005 53.4005C143.719 51.1386 140.577 50.0672 135.553 49.8767C134.243 49.8053 132.862 49.8291 132.458 49.8767ZM140.077 54.2577C142.029 54.8767 143.481 55.7815 144.005 56.7101C144.315 57.2815 144.315 57.4243 144.005 57.9958C143.481 58.9481 141.981 59.8529 139.958 60.4958C138.434 60.9481 137.648 61.0434 134.719 61.0434C131.791 61.0434 131.005 60.9481 129.481 60.4958C127.458 59.8529 125.958 58.9481 125.434 57.9958C125.124 57.4243 125.124 57.2815 125.434 56.7101C125.958 55.7577 127.458 54.8291 129.362 54.2815C131.672 53.6148 132.077 53.5672 135.434 53.6624C137.672 53.7101 138.838 53.8767 140.077 54.2577Z" fill="#575757"/>
</g>
<defs>
<clipPath id="clip0_552_2782">
<rect width="121.905" height="121.905" fill="white" transform="translate(39.4814 0.209961)"/>
</clipPath>
</defs>
</svg>
